<?xml version="1.0" encoding="UTF-8" standalone="no"?><svg width="413" height="387" viewBox="0 0 413 387" fill="none" xmlns="http://www.w3.org/2000/svg">
<path d="M339.633 195.872C339.633 115.944 274.796 51.1494 194.817 51.1494C114.837 51.1494 50 115.944 50 195.872C50 275.8 114.837 340.595 194.817 340.595C274.796 340.595 339.633 275.8 339.633 195.872Z" fill="#7B4AE2" fill-opacity="0.2"/>
<g filter="url(#filter0_d_104_60)">
<circle cx="342.147" cy="207.89" r="20.1134" fill="#090E16"/>
</g>
<g clip-path="url(#clip0_104_60)">
<path fill-rule="evenodd" clip-rule="evenodd" d="M350.633 197.834H333.662C332.794 197.834 332.091 198.537 332.091 199.405V216.376C332.091 217.243 332.794 217.947 333.662 217.947H350.633C351.5 217.947 352.204 217.243 352.204 216.376V199.405C352.204 198.537 351.5 197.834 350.633 197.834ZM343.916 215.755V213.584C344.31 213.915 344.738 214.162 345.199 214.327C345.661 214.492 346.127 214.575 346.597 214.575C346.873 214.575 347.114 214.55 347.32 214.5C347.526 214.45 347.698 214.381 347.836 214.293C347.974 214.205 348.077 214.101 348.145 213.981C348.213 213.861 348.247 213.731 348.247 213.591C348.247 213.401 348.192 213.232 348.084 213.083C347.975 212.933 347.827 212.796 347.639 212.669C347.451 212.542 347.229 212.42 346.971 212.303C346.713 212.185 346.434 212.066 346.136 211.943C345.376 211.627 344.809 211.24 344.436 210.784C344.062 210.327 343.876 209.776 343.876 209.129C343.876 208.623 343.978 208.188 344.181 207.824C344.385 207.46 344.662 207.16 345.013 206.925C345.363 206.69 345.769 206.517 346.231 206.407C346.692 206.296 347.181 206.24 347.697 206.24C348.204 206.24 348.653 206.271 349.044 206.332C349.435 206.393 349.796 206.487 350.126 206.613V208.641C349.964 208.528 349.786 208.428 349.594 208.343C349.401 208.257 349.203 208.185 349 208.129C348.796 208.072 348.594 208.031 348.392 208.003C348.191 207.976 348 207.963 347.819 207.963C347.57 207.963 347.344 207.987 347.14 208.034C346.937 208.081 346.765 208.148 346.624 208.234C346.484 208.32 346.376 208.423 346.299 208.543C346.222 208.662 346.183 208.797 346.183 208.946C346.183 209.109 346.226 209.255 346.312 209.383C346.398 209.512 346.52 209.634 346.679 209.75C346.837 209.865 347.029 209.978 347.256 210.089C347.482 210.2 347.737 210.314 348.023 210.431C348.412 210.594 348.761 210.767 349.071 210.95C349.381 211.133 349.647 211.34 349.869 211.57C350.09 211.801 350.26 212.064 350.378 212.36C350.495 212.657 350.554 213.001 350.554 213.395C350.554 213.937 350.451 214.393 350.245 214.761C350.039 215.13 349.76 215.428 349.407 215.656C349.054 215.884 348.644 216.048 348.175 216.148C347.707 216.247 347.213 216.297 346.692 216.297C346.158 216.297 345.651 216.252 345.169 216.161C344.687 216.071 344.269 215.935 343.916 215.755ZM343.09 208.184H340.3V216.14H338.089V208.184H335.312V206.397H343.09V208.184Z" fill="#7B4AE2" fill-opacity="0.5"/>
</g>
<g filter="url(#filter1_d_104_60)">
<circle cx="70.1134" cy="156.601" r="20.1134" fill="#090E16"/>
</g>
<path d="M77.6381 153.063C77.4036 152.983 77.1606 152.906 76.9104 152.834C76.9515 152.666 76.9893 152.501 77.0228 152.338C77.5737 149.664 77.2135 147.51 75.9836 146.8C74.8043 146.12 72.8756 146.829 70.9277 148.525C70.7404 148.688 70.5525 148.86 70.3648 149.041C70.2397 148.921 70.1148 148.806 69.9902 148.695C67.9487 146.882 65.9025 146.119 64.6738 146.83C63.4955 147.512 63.1466 149.537 63.6425 152.071C63.6904 152.316 63.7464 152.566 63.8097 152.82C63.52 152.902 63.2405 152.99 62.973 153.083C60.5796 153.918 59.051 155.226 59.051 156.582C59.051 157.983 60.6919 159.388 63.1848 160.24C63.3815 160.308 63.5857 160.371 63.796 160.432C63.7278 160.706 63.6684 160.976 63.6185 161.238C63.1457 163.729 63.5149 165.706 64.69 166.384C65.9037 167.084 67.9407 166.364 69.9243 164.63C70.081 164.493 70.2384 164.348 70.396 164.196C70.6003 164.392 70.8043 164.579 71.0071 164.753C72.9284 166.407 74.826 167.074 76 166.395C77.2125 165.693 77.6066 163.568 77.095 160.984C77.0559 160.787 77.0104 160.585 76.9593 160.38C77.1024 160.338 77.2428 160.294 77.3798 160.249C79.9714 159.39 81.6576 158.002 81.6576 156.582C81.6576 155.221 80.0797 153.904 77.6381 153.063ZM77.076 159.332C76.9524 159.373 76.8256 159.412 76.6963 159.451C76.4102 158.545 76.0241 157.582 75.5516 156.587C76.0025 155.615 76.3737 154.665 76.6518 153.765C76.8831 153.832 77.1075 153.902 77.3238 153.977C79.4158 154.697 80.6918 155.762 80.6918 156.582C80.6918 157.456 79.3137 158.59 77.076 159.332ZM76.1476 161.172C76.3738 162.314 76.4061 163.348 76.2562 164.155C76.1216 164.881 75.8508 165.365 75.516 165.559C74.8036 165.971 73.2801 165.435 71.637 164.021C71.4486 163.859 71.2589 163.686 71.0685 163.503C71.7055 162.806 72.3422 161.996 72.9635 161.097C74.0564 161 75.0889 160.841 76.0252 160.625C76.0713 160.811 76.1123 160.993 76.1476 161.172ZM66.7581 165.487C66.062 165.733 65.5077 165.74 65.1726 165.547C64.4595 165.136 64.163 163.548 64.5674 161.419C64.6137 161.175 64.6688 160.924 64.7324 160.668C65.6584 160.873 66.6834 161.02 67.7789 161.109C68.4044 161.989 69.0594 162.798 69.7195 163.507C69.5753 163.646 69.4316 163.778 69.2888 163.903C68.4117 164.67 67.5327 165.214 66.7581 165.487ZM63.4972 159.327C62.3948 158.95 61.4845 158.46 60.8605 157.926C60.2998 157.446 60.0167 156.969 60.0167 156.582C60.0167 155.759 61.244 154.709 63.2908 153.995C63.5392 153.909 63.7992 153.827 64.069 153.75C64.3519 154.671 64.723 155.633 65.1708 156.606C64.7172 157.593 64.3408 158.57 64.0552 159.501C63.8628 159.446 63.6765 159.388 63.4972 159.327ZM64.5903 151.886C64.1654 149.715 64.4476 148.077 65.1576 147.666C65.9139 147.228 67.5863 147.852 69.3489 149.417C69.4616 149.517 69.5747 149.622 69.6881 149.73C69.0313 150.436 68.3823 151.239 67.7623 152.113C66.6991 152.212 65.6814 152.37 64.7457 152.582C64.6868 152.346 64.6347 152.113 64.5903 151.886ZM74.3417 154.294C74.118 153.907 73.8884 153.53 73.6542 153.163C74.3755 153.254 75.0666 153.375 75.7156 153.524C75.5208 154.148 75.2779 154.801 74.992 155.47C74.787 155.081 74.5701 154.688 74.3417 154.294ZM70.3651 150.42C70.8105 150.903 71.2566 151.442 71.6954 152.026C71.2532 152.006 70.8056 151.995 70.3543 151.995C69.9072 151.995 69.4629 152.005 69.0235 152.026C69.4627 151.447 69.9127 150.909 70.3651 150.42ZM66.363 154.3C66.1395 154.688 65.9267 155.078 65.7248 155.469C65.4436 154.802 65.203 154.147 65.0065 153.513C65.6515 153.369 66.3393 153.251 67.056 153.161C66.8186 153.532 66.5871 153.912 66.363 154.3V154.3ZM67.0766 160.071C66.3362 159.989 65.638 159.877 64.9932 159.737C65.1928 159.092 65.4387 158.422 65.7259 157.741C65.9283 158.132 66.142 158.522 66.3668 158.91H66.3669C66.5959 159.306 66.8331 159.694 67.0766 160.071ZM70.3918 162.812C69.9341 162.318 69.4775 161.771 69.0316 161.184C69.4645 161.201 69.9058 161.21 70.3543 161.21C70.8151 161.21 71.2706 161.199 71.7189 161.179C71.2787 161.777 70.8342 162.325 70.3918 162.812ZM75.0013 157.706C75.3034 158.395 75.5581 159.061 75.7604 159.695C75.1049 159.844 74.3972 159.965 73.6516 160.054C73.8863 159.682 74.1179 159.299 74.3456 158.904C74.5759 158.505 74.7945 158.105 75.0013 157.706ZM73.509 158.421C73.1556 159.034 72.7928 159.619 72.4245 160.171C71.7537 160.219 71.0607 160.244 70.3543 160.244C69.6508 160.244 68.9665 160.222 68.3075 160.179C67.9244 159.62 67.5537 159.033 67.2026 158.427H67.2026C66.8524 157.822 66.5301 157.212 66.2381 156.605C66.53 155.997 66.8515 155.387 67.1997 154.783L67.1996 154.783C67.5487 154.177 67.9162 153.594 68.2958 153.038C68.9681 152.987 69.6575 152.96 70.3543 152.96H70.3543C71.0542 152.96 71.7445 152.987 72.4166 153.038C72.7904 153.59 73.1554 154.172 73.5058 154.778C73.8603 155.39 74.1859 155.997 74.4804 156.591C74.1868 157.197 73.8619 157.809 73.509 158.421ZM75.5012 147.637C76.2583 148.074 76.5526 149.834 76.077 152.143C76.0467 152.29 76.0125 152.44 75.9754 152.592C75.0375 152.376 74.0191 152.215 72.9528 152.115C72.3316 151.23 71.6879 150.426 71.0417 149.73C71.2155 149.563 71.3889 149.403 71.5617 149.253C73.2306 147.801 74.7905 147.227 75.5012 147.637ZM70.3543 154.563C71.4692 154.563 72.373 155.467 72.373 156.582C72.373 157.697 71.4692 158.601 70.3543 158.601C69.2394 158.601 68.3356 157.697 68.3356 156.582C68.3356 155.467 69.2394 154.563 70.3543 154.563Z" fill="#7B4AE2" fill-opacity="0.5"/>
<g filter="url(#filter2_d_104_60)">
<circle cx="70.1134" cy="285.327" r="20.1134" fill="#090E16"/>
</g>
<g clip-path="url(#clip1_104_60)">
<path fill-rule="evenodd" clip-rule="evenodd" d="M66.7873 275.27C64.9369 275.27 63.4351 276.772 63.4351 278.622C63.4351 280.473 64.9369 281.975 66.7873 281.975C64.9369 281.975 63.4351 283.476 63.4351 285.327C63.4351 287.177 64.9369 288.679 66.7873 288.679C64.9369 288.679 63.4351 290.181 63.4351 292.031C63.4351 293.882 64.9369 295.384 66.7873 295.384C68.6377 295.384 70.1395 293.882 70.1395 292.031L70.1395 285.327C70.1395 287.177 71.6413 288.679 73.4918 288.679C75.3422 288.679 76.844 287.177 76.844 285.327C76.844 283.476 75.3422 281.975 73.4918 281.975C75.3422 281.975 76.844 280.473 76.844 278.622C76.844 276.772 75.3422 275.27 73.4918 275.27H66.7873ZM73.4918 281.975H70.1395L70.1395 285.327C70.1395 283.476 71.6413 281.975 73.4918 281.975Z" fill="#7B4AE2" fill-opacity="0.5"/>
</g>
<g filter="url(#filter3_f_104_60)">
<circle cx="195.822" cy="193.308" r="143.308" fill="#7B4AE2" fill-opacity="0.2"/>
</g>
<g filter="url(#filter4_i_104_60)">
<path fill-rule="evenodd" clip-rule="evenodd" d="M169.43 249.091C190.075 260.095 213.224 258.872 231.363 249.09V273.197L231.568 273.191V287.345H169.43V249.091Z" fill="#BB7D52"/>
<path fill-rule="evenodd" clip-rule="evenodd" d="M169.43 269.177C190.074 280.182 213.225 278.959 231.363 269.177V284.549L245.311 284.202L245.484 284.208C245.484 321.262 156.9 326.808 156.9 284.153L157.246 284.137L169.43 284.199V269.177V269.177Z" fill="#D08B5B"/>
<path fill-rule="evenodd" clip-rule="evenodd" d="M133.164 116.893C182.43 85.5248 245.458 96.6798 266.752 117.365C272.909 132.18 273.344 146.469 271.533 161.808C275.692 158.824 280.638 159.507 284.535 162.286C286.113 175.014 290.342 200.192 271.392 201.285C264.868 282.505 145.326 292.615 129.167 201.55C110.385 200.903 115.449 175.456 116.623 163.236C121.129 159.808 126.275 161.534 129.469 163.067L133.164 116.893V116.893Z" fill="#D08B5B"/>
<path fill-rule="evenodd" clip-rule="evenodd" d="M125.847 151.29C126.106 152.001 125.265 152.712 122.742 154.005C117.521 156.613 117.063 157.155 117.05 161.24V161.437C117.05 166.931 117.891 168.352 121.513 168.87C125.2 169.387 127.529 170.226 128.176 171.261C128.434 171.713 128.693 173.781 128.693 175.914C128.693 180.503 130.116 186.966 131.863 190.326C136.779 199.892 149.586 204.739 165.11 202.929C172.742 201.96 177.206 200.473 182.057 197.242C189.302 192.395 192.665 186.19 193.182 176.431C193.571 170.485 193.571 170.485 195.511 169.839C198.034 168.934 204.309 168.934 206.896 169.839C208.901 170.55 208.901 170.55 208.901 175.139C208.901 180.438 210.259 186.772 212.07 190.327C216.986 199.892 229.794 204.739 245.253 202.929C252.95 201.96 257.413 200.473 262.265 197.242C269.509 192.395 272.873 185.997 273.52 175.979C273.973 169.387 273.65 169.71 280.764 168.805C284.387 168.353 285.228 166.931 285.228 161.373C285.228 156.978 284.516 156.138 278.501 153.553L274.878 152.001L269.25 150.257L265.111 149.352C262.847 148.9 259.936 148.511 258.707 148.447C257.413 148.447 254.18 147.283 250.946 145.668C245.576 143.018 245.318 142.953 238.979 142.953C231.734 142.953 226.624 144.44 222.484 147.672C221.255 148.641 218.668 149.869 216.857 150.321C214.981 150.774 211.488 152.002 209.095 153.036C202.821 155.686 199.586 155.556 191.566 152.325C188.073 150.903 184.774 149.739 184.321 149.739C183.868 149.739 182.381 148.835 181.022 147.736C176.753 144.375 171.966 142.953 164.592 142.953C158.318 142.953 157.93 143.083 152.367 145.733C148.616 147.542 145.705 148.447 143.958 148.447C142.535 148.511 139.43 148.9 137.102 149.417L125.847 151.29V151.29ZM177.594 159.628C185.355 162.148 187.748 165.573 187.813 174.234C187.878 178.823 187.62 180.309 186.391 182.829C182.122 191.554 169.961 196.467 155.536 195.368C144.475 194.463 138.783 191.361 135.743 184.51C133.803 180.051 133.544 169.387 135.355 166.09C137.037 162.988 140.271 160.856 145.575 159.434C149.715 158.335 151.979 158.206 162.328 158.335C171.254 158.529 175.136 158.852 177.594 159.628V159.628ZM257.801 159.628C265.564 162.148 267.956 165.573 268.022 174.234C268.086 178.823 267.827 180.309 266.598 182.829C262.329 191.554 250.168 196.467 235.744 195.368C224.683 194.463 218.991 191.361 215.951 184.51C214.01 180.051 213.752 169.387 215.563 166.09C217.245 162.988 220.479 160.856 225.783 159.434C229.923 158.335 232.186 158.206 242.535 158.335C251.462 158.529 255.343 158.852 257.801 159.628V159.628Z" fill="#A66F49"/>
<path fill-rule="evenodd" clip-rule="evenodd" d="M183.803 53.7196L179.728 56.3697L177.658 54.366C174.424 51.1993 172.871 51.781 170.414 57.016C168.926 60.2473 167.05 60.6354 163.816 58.5023C162.522 57.5977 160.905 56.822 160.258 56.822C158.835 56.822 157.477 59.0193 156.895 61.9277C156.442 64.319 154.89 66.5164 153.596 66.5164C153.143 66.5164 151.461 65.9347 149.844 65.2237C147.386 64.125 146.61 64.0603 145.252 64.642C143.699 65.353 143.57 65.7407 143.57 70.0064C143.57 73.1087 143.117 75.5001 142.276 77.3098C141.047 80.0241 140.982 80.0888 137.942 80.0888C132.897 80.0888 130.504 82.6091 132.962 85.3885C134.256 86.7455 133.414 88.1675 130.892 88.7491C126.235 89.9125 124.876 92.8855 127.399 96.0522C129.146 98.3142 129.081 98.6375 126.299 99.9302C123.389 101.352 122.936 102.968 124.812 104.971C126.235 106.523 126.235 106.587 125.458 115.118C124.683 123.391 124.941 146.464 125.847 148.855C126.106 149.566 125.265 150.277 122.742 151.57C117.438 154.219 117.05 154.736 117.05 159.002C117.05 164.495 117.891 165.918 121.513 166.435C125.2 166.952 127.528 167.791 128.176 168.826C128.434 169.278 128.693 171.346 128.693 173.479C128.693 178.068 130.116 184.531 131.862 187.892C136.778 197.457 149.586 202.304 165.11 200.495C172.743 199.525 177.206 198.039 182.057 194.807C189.302 189.96 192.665 183.755 193.183 173.996C193.571 168.05 193.571 168.05 195.511 167.404C198.034 166.499 204.308 166.499 206.896 167.404C208.901 168.115 208.901 168.115 208.901 172.704C208.901 178.004 210.259 184.337 212.07 187.892C216.986 197.457 229.794 202.304 245.253 200.495C252.95 199.525 257.413 198.039 262.265 194.808C269.51 189.96 272.873 183.562 273.52 173.544C273.973 166.952 273.649 167.275 280.764 166.37C284.387 165.918 285.228 164.496 285.228 158.938C285.228 154.543 284.516 153.703 278.501 151.118L274.878 149.566V143.103C274.813 132.052 273.261 124.232 270.544 121.711C269.639 120.871 267.634 119.578 266.017 118.803C263.494 117.575 262.977 117.51 262.2 118.35C261.424 119.126 261.618 119.837 263.559 123.715C265.952 128.497 268.086 136.576 268.798 143.556L269.251 147.822L265.111 146.917C262.847 146.464 259.936 146.077 258.707 146.012C257.413 146.012 254.179 144.849 250.945 143.233C245.576 140.583 245.318 140.518 238.979 140.518C231.734 140.518 226.624 142.005 222.484 145.236C221.255 146.206 218.668 147.434 216.857 147.887C214.981 148.339 211.488 149.567 209.095 150.601C202.821 153.251 199.586 153.122 191.565 149.89C188.073 148.468 184.774 147.305 184.321 147.305C183.868 147.305 182.381 146.4 181.022 145.301C176.753 141.94 171.966 140.518 164.592 140.518C158.318 140.518 157.93 140.648 152.367 143.297C148.615 145.107 145.705 146.012 143.958 146.012C142.535 146.077 139.43 146.464 137.102 146.981C130.504 148.403 131.021 149.243 131.539 138.386C131.927 129.079 133.156 121.194 134.579 118.48C136.196 115.442 149.004 108.914 161.682 104.649C177.4 99.4139 195.058 97.4102 214.981 98.7676C232.057 99.8663 236.586 101.288 255.473 111.435C262.071 114.99 268.216 117.833 269.639 118.027C271.968 118.35 272.161 118.221 272.873 116.282C274.426 111.823 273.196 100.577 270.609 95.4712C268.669 91.7229 268.539 90.3009 269.639 86.4232C270.415 83.7085 270.415 83.1268 269.445 81.7052C268.539 80.3478 267.892 80.0895 265.305 80.0895C263.623 80.1542 261.036 80.4125 259.548 80.6712C256.896 81.1882 256.831 81.1882 257.155 79.5078C258.449 73.1741 256.896 71.7521 250.622 73.3678C248.617 73.8848 246.741 74.2081 246.611 74.0141C246.417 73.8205 246.611 71.8815 247.064 69.7488C247.84 66.2588 247.776 65.6771 246.87 64.7074C245.9 63.8028 245.318 63.8028 241.566 64.5138C235.551 65.7418 233.286 65.1601 231.087 61.7991C228.823 58.5031 226.753 57.3397 224.619 58.1797C223.454 58.632 222.226 58.4384 219.897 57.4044C217.439 56.3704 216.016 56.1117 213.817 56.4347C211.553 56.8227 210.324 56.5641 208.189 55.4654C205.99 54.3667 204.761 54.1727 202.109 54.4957C199.263 54.819 198.228 54.5604 194.929 52.9447C192.859 51.9107 190.401 51.0703 189.496 51.0057C188.59 51.0057 186.067 52.2337 183.804 53.7204L183.803 53.7196V53.7196ZM177.593 157.192C185.356 159.713 187.749 163.139 187.813 171.799C187.878 176.388 187.619 177.874 186.391 180.395C182.121 189.12 169.961 194.032 155.536 192.933C144.475 192.028 138.783 188.926 135.743 182.075C133.803 177.616 133.544 166.952 135.355 163.656C137.037 160.553 140.271 158.42 145.575 156.998C149.715 155.9 151.979 155.77 162.328 155.9C171.254 156.094 175.135 156.417 177.593 157.192V157.192ZM257.801 157.192C265.563 159.713 267.956 163.139 268.021 171.799C268.086 176.388 267.827 177.874 266.598 180.395C262.329 189.12 250.169 194.032 235.744 192.933C224.683 192.028 218.991 188.926 215.951 182.075C214.01 177.616 213.752 166.952 215.563 163.656C217.245 160.553 220.479 158.42 225.783 156.998C229.923 155.9 232.187 155.77 242.536 155.9C251.462 156.094 255.343 156.417 257.801 157.192V157.192Z" fill="#2C1B18"/>
<path fill-rule="evenodd" clip-rule="evenodd" d="M156.765 165.013C153.337 166.629 149.391 170.7 149.391 172.639C149.391 174.126 150.426 174.126 152.432 172.51C157.671 168.374 168.796 168.374 174.489 172.445C175.588 173.156 176.752 173.802 177.141 173.802C178.499 173.802 177.852 171.476 175.782 169.02C173.066 165.659 168.214 163.462 163.622 163.462C161.228 163.462 158.965 163.979 156.765 165.013V165.013V165.013Z" fill="#533824"/>
<path fill-rule="evenodd" clip-rule="evenodd" d="M231.798 165.013C228.37 166.629 224.424 170.7 224.424 172.639C224.424 174.126 225.459 174.126 227.465 172.51C232.704 168.374 243.83 168.374 249.522 172.445C250.621 173.156 251.786 173.802 252.174 173.802C253.532 173.802 252.885 171.476 250.815 169.02C248.099 165.659 243.248 163.462 238.655 163.462C236.262 163.462 233.998 163.979 231.799 165.013L231.798 165.013V165.013Z" fill="#533824"/>
<path fill-rule="evenodd" clip-rule="evenodd" d="M186.067 195.906C186.779 198.685 188.849 200.883 192.471 202.628C195.382 204.049 196.869 204.373 201.138 204.373C205.407 204.373 206.895 204.049 209.806 202.628C213.428 200.883 215.498 198.685 216.209 195.906L216.533 194.484H201.138H185.743L186.067 195.906V195.906Z" fill="#AF754C"/>
<path fill-rule="evenodd" clip-rule="evenodd" d="M125.847 148.855C126.106 149.566 125.265 150.277 122.742 151.57C117.521 154.178 117.063 154.72 117.05 158.805V159.003C117.05 164.496 117.891 165.917 121.513 166.435C125.2 166.951 127.529 167.791 128.176 168.826C128.434 169.278 128.693 171.347 128.693 173.479C128.693 178.068 130.116 184.531 131.863 187.892C136.779 197.457 149.586 202.304 165.11 200.495C172.742 199.525 177.206 198.039 182.057 194.807C189.302 189.96 192.665 183.756 193.182 173.997C193.571 168.05 193.571 168.05 195.511 167.404C198.034 166.5 204.309 166.5 206.896 167.404C208.901 168.115 208.901 168.115 208.901 172.704C208.901 178.003 210.259 184.337 212.07 187.892C216.986 197.457 229.794 202.304 245.253 200.495C252.95 199.525 257.413 198.039 262.265 194.808C269.509 189.961 272.873 183.562 273.52 173.544C273.973 166.951 273.65 167.275 280.764 166.37C284.387 165.918 285.228 164.496 285.228 158.937C285.228 154.543 284.516 153.703 278.501 151.118L274.878 149.566L269.25 147.822L265.111 146.917C262.847 146.465 259.936 146.076 258.707 146.012C257.413 146.012 254.18 144.848 250.946 143.233C245.576 140.583 245.318 140.518 238.979 140.518C231.734 140.518 226.624 142.005 222.484 145.237C221.255 146.206 218.668 147.434 216.857 147.886C214.981 148.339 211.488 149.567 209.095 150.601C202.821 153.251 199.586 153.122 191.566 149.89C188.073 148.469 184.774 147.304 184.321 147.304C183.868 147.304 182.381 146.4 181.022 145.301C176.753 141.94 171.966 140.518 164.592 140.518C158.318 140.518 157.93 140.648 152.367 143.298C148.616 145.107 145.705 146.012 143.958 146.012C142.535 146.076 139.43 146.465 137.102 146.981L125.847 148.855V148.855ZM177.594 157.193C185.355 159.714 187.748 163.138 187.813 171.799C187.878 176.388 187.62 177.875 186.391 180.395C182.122 189.12 169.961 194.032 155.536 192.933C144.475 192.028 138.783 188.926 135.743 182.075C133.803 177.616 133.544 166.951 135.355 163.655C137.037 160.553 140.271 158.421 145.575 156.999C149.715 155.9 151.979 155.771 162.328 155.9C171.254 156.093 175.136 156.417 177.594 157.193V157.193ZM257.801 157.193C265.564 159.714 267.956 163.138 268.022 171.799C268.086 176.388 267.827 177.875 266.598 180.395C262.329 189.12 250.168 194.032 235.744 192.933C224.683 192.028 218.991 188.926 215.951 182.075C214.01 177.616 213.752 166.951 215.563 163.655C217.245 160.553 220.479 158.421 225.783 156.999C229.923 155.9 232.186 155.771 242.535 155.9C251.462 156.093 255.343 156.417 257.801 157.193V157.193Z" fill="#090E16"/>
<path fill-rule="evenodd" clip-rule="evenodd" d="M183.092 221.887C183.932 227.251 188.008 232.745 193.053 235.33C196.74 237.269 203.532 237.657 207.413 236.171C213.234 233.909 218.28 227.833 219.185 221.887H183.092V221.887Z" fill="#3E291B"/>
<path fill-rule="evenodd" clip-rule="evenodd" d="M182.539 208.415C181.554 208.773 179.136 209.936 177.165 211.055C175.195 212.128 172.956 213.292 172.195 213.605C170.628 214.231 166.016 214.41 164.539 213.918C163.688 213.649 163.508 213.739 163.508 214.588C163.508 215.976 166.419 218.571 169.598 220.092C173.718 222.061 179.091 221.658 185.808 218.839C188.4 218.076 192.15 216.03 195.166 214.992C201.809 212.645 205.202 213.992 211.196 216.558L216.435 218.839C223.152 221.658 228.525 222.061 232.645 220.092C235.868 218.571 238.868 215.842 238.645 214.678C238.555 214.231 238.152 213.963 237.794 214.052C237.435 214.142 235.778 214.186 234.077 214.186C231.39 214.141 230.585 213.918 227.361 212.263C218.629 207.699 219.883 208.057 213.435 208.057C208.286 208.057 207.256 208.236 204.39 209.265L201.121 210.428L197.897 209.265C193.957 207.878 185.583 207.431 182.539 208.415V208.415Z" fill="#2C1B18" fill-opacity="0.301961"/>
<path d="M223.96 346.561L228.113 343.187C229.076 342.405 230.491 342.55 231.273 343.512C232.056 344.474 231.91 345.887 230.948 346.669L228.937 348.302L243.532 360.589C244.495 361.371 244.641 362.785 243.858 363.746C243.414 364.292 242.767 364.575 242.114 364.575C241.616 364.575 241.114 364.41 240.698 364.072L223.96 350.044C223.435 349.617 223.131 348.978 223.131 348.302C223.131 347.627 223.435 346.987 223.96 346.561V346.561Z" fill="#7B4AE2"/>
<path d="M242.405 325.943C243.597 325.952 244.557 326.926 244.547 328.118L244.361 362.434C244.352 363.626 243.377 364.584 242.185 364.575C241.882 364.572 241.596 364.508 241.335 364.394C240.569 364.058 240.035 363.29 240.042 362.4L240.228 328.083C240.238 326.891 241.212 325.933 242.405 325.943V325.943Z" fill="#7B4AE2"/>
<path d="M251.884 349.549L253.418 348.302L247.954 343.863C246.992 343.081 246.846 341.668 247.628 340.706C248.411 339.744 249.826 339.598 250.788 340.38L258.395 346.561C258.92 346.987 259.224 347.627 259.224 348.302C259.224 348.978 258.92 349.617 258.395 350.044L254.718 353.031C254.302 353.369 253.8 353.534 253.303 353.534C252.65 353.534 252.002 353.251 251.558 352.706C250.776 351.744 250.922 350.331 251.884 349.549V349.549Z" fill="#C83267"/>
<path fill-rule="evenodd" clip-rule="evenodd" d="M156.506 284.176C137.425 286.033 120.09 293.139 105.665 304.984C93.2529 315.132 89.79 323.199 80.7026 334.686C99.2182 353.88 124.116 370.143 151.267 379.125C169.379 385.079 181.733 387 201.138 387C220.544 387 232.898 385.079 251.01 379.125C278.401 370.373 301.474 356.029 322.273 335.442C308.028 317.07 302.164 305.029 279.211 293.715C269.573 288.914 258.254 285.456 249.586 284.56L245.504 284.192L245.31 284.188L244.864 287.249C242.924 301.847 224.619 312.603 201.785 312.603C178.952 312.603 160.97 301.974 158.641 287.185C158.189 284.24 157.994 283.984 156.507 284.176H156.506V284.176Z" fill="#090E16"/>
<path fill-rule="evenodd" clip-rule="evenodd" d="M168.342 258.161L168.073 258.076C167.335 257.844 170.958 256.191 172.242 255.577C176.016 253.774 180.937 254.143 187.09 256.725C189.465 257.424 192.9 259.298 195.663 260.249C201.748 262.4 204.857 261.165 210.347 258.815L215.146 256.725C221.299 254.143 226.221 253.774 229.995 255.577C231.26 256.175 232.51 256.95 233.461 257.779L233.748 258.028C222.734 266.422 187.432 270.595 168.342 258.161V258.161Z" fill="#2C1B18" fill-opacity="0.501961"/>
<path d="M238.995 336.67L241.157 334.913C241.658 334.506 242.395 334.582 242.802 335.083C243.209 335.584 243.133 336.32 242.632 336.727L241.586 337.577L249.183 343.974C249.684 344.381 249.76 345.117 249.353 345.618C249.122 345.902 248.785 346.049 248.445 346.049C248.186 346.049 247.925 345.963 247.708 345.787L238.995 338.483C238.722 338.262 238.563 337.929 238.563 337.577C238.563 337.225 238.722 336.892 238.995 336.67V336.67Z" fill="white"/>
<path d="M248.596 325.936C249.217 325.941 249.716 326.447 249.711 327.068L249.615 344.934C249.61 345.555 249.102 346.054 248.482 346.049C248.324 346.048 248.175 346.014 248.039 345.955C247.64 345.78 247.363 345.38 247.366 344.916L247.463 327.05C247.468 326.43 247.975 325.931 248.596 325.936V325.936Z" fill="white"/>
<path d="M253.531 338.226L254.329 337.577L251.485 335.266C250.984 334.859 250.908 334.123 251.316 333.622C251.723 333.121 252.459 333.045 252.96 333.452L256.92 336.67C257.193 336.892 257.352 337.225 257.352 337.577C257.352 337.929 257.193 338.262 256.92 338.483L255.006 340.039C254.789 340.215 254.528 340.301 254.269 340.301C253.929 340.301 253.592 340.153 253.361 339.869C252.954 339.369 253.03 338.633 253.531 338.226Z" fill="#7B4AE2"/>
</g>
<defs>
<filter id="filter0_d_104_60" x="272.034" y="141.777" width="140.227" height="140.227" filterUnits="userSpaceOnUse" color-interpolation-filters="sRGB">
<feFlood flood-opacity="0" result="BackgroundImageFix"/>
<feColorMatrix in="SourceAlpha" type="matrix" values="0 0 0 0 0 0 0 0 0 0 0 0 0 0 0 0 0 0 127 0" result="hardAlpha"/>
<feOffset dy="4"/>
<feGaussianBlur stdDeviation="25"/>
<feComposite in2="hardAlpha" operator="out"/>
<feColorMatrix type="matrix" values="0 0 0 0 0 0 0 0 0 0 0 0 0 0 0 0 0 0 0.5 0"/>
<feBlend mode="normal" in2="BackgroundImageFix" result="effect1_dropShadow_104_60"/>
<feBlend mode="normal" in="SourceGraphic" in2="effect1_dropShadow_104_60" result="shape"/>
</filter>
<filter id="filter1_d_104_60" x="0" y="90.4876" width="140.227" height="140.227" filterUnits="userSpaceOnUse" color-interpolation-filters="sRGB">
<feFlood flood-opacity="0" result="BackgroundImageFix"/>
<feColorMatrix in="SourceAlpha" type="matrix" values="0 0 0 0 0 0 0 0 0 0 0 0 0 0 0 0 0 0 127 0" result="hardAlpha"/>
<feOffset dy="4"/>
<feGaussianBlur stdDeviation="25"/>
<feComposite in2="hardAlpha" operator="out"/>
<feColorMatrix type="matrix" values="0 0 0 0 0 0 0 0 0 0 0 0 0 0 0 0 0 0 0.5 0"/>
<feBlend mode="normal" in2="BackgroundImageFix" result="effect1_dropShadow_104_60"/>
<feBlend mode="normal" in="SourceGraphic" in2="effect1_dropShadow_104_60" result="shape"/>
</filter>
<filter id="filter2_d_104_60" x="0" y="219.213" width="140.227" height="140.227" filterUnits="userSpaceOnUse" color-interpolation-filters="sRGB">
<feFlood flood-opacity="0" result="BackgroundImageFix"/>
<feColorMatrix in="SourceAlpha" type="matrix" values="0 0 0 0 0 0 0 0 0 0 0 0 0 0 0 0 0 0 127 0" result="hardAlpha"/>
<feOffset dy="4"/>
<feGaussianBlur stdDeviation="25"/>
<feComposite in2="hardAlpha" operator="out"/>
<feColorMatrix type="matrix" values="0 0 0 0 0 0 0 0 0 0 0 0 0 0 0 0 0 0 0.5 0"/>
<feBlend mode="normal" in2="BackgroundImageFix" result="effect1_dropShadow_104_60"/>
<feBlend mode="normal" in="SourceGraphic" in2="effect1_dropShadow_104_60" result="shape"/>
</filter>
<filter id="filter3_f_104_60" x="2.51416" y="0" width="386.616" height="386.616" filterUnits="userSpaceOnUse" color-interpolation-filters="sRGB">
<feFlood flood-opacity="0" result="BackgroundImageFix"/>
<feBlend mode="normal" in="SourceGraphic" in2="BackgroundImageFix" result="shape"/>
<feGaussianBlur stdDeviation="25" result="effect1_foregroundBlur_104_60"/>
</filter>
<filter id="filter4_i_104_60" x="80.7026" y="51.0057" width="241.57" height="339.994" filterUnits="userSpaceOnUse" color-interpolation-filters="sRGB">
<feFlood flood-opacity="0" result="BackgroundImageFix"/>
<feBlend mode="normal" in="SourceGraphic" in2="BackgroundImageFix" result="shape"/>
<feColorMatrix in="SourceAlpha" type="matrix" values="0 0 0 0 0 0 0 0 0 0 0 0 0 0 0 0 0 0 127 0" result="hardAlpha"/>
<feOffset dy="4"/>
<feGaussianBlur stdDeviation="2"/>
<feComposite in2="hardAlpha" operator="arithmetic" k2="-1" k3="1"/>
<feColorMatrix type="matrix" values="0 0 0 0 0 0 0 0 0 0 0 0 0 0 0 0 0 0 0.25 0"/>
<feBlend mode="normal" in2="shape" result="effect1_innerShadow_104_60"/>
</filter>
<clipPath id="clip0_104_60">
<rect width="20.1134" height="20.1134" fill="white" transform="translate(332.091 197.834)"/>
</clipPath>
<clipPath id="clip1_104_60">
<rect width="20.1134" height="20.1134" fill="white" transform="translate(60.0566 275.27)"/>
</clipPath>
</defs>
</svg>
